<?xml version="1.0" encoding="UTF-8" standalone="no"?>
<!DOCTYPE svg PUBLIC "-//W3C//DTD SVG 20010904//EN"
              "http://www.w3.org/TR/2001/REC-SVG-20010904/DTD/svg10.dtd">

<svg xmlns="http://www.w3.org/2000/svg"
     width="3.5in" height="1.2in"
     viewBox="0 0 1301 688">
  <path id="Selection"
        fill="white" stroke="white" stroke-width="1"
        d="M 440.00,276.00
           C 440.00,276.00 464.00,266.51 464.00,266.51
             470.86,264.97 477.06,265.03 484.00,265.00
             493.45,264.95 502.69,262.61 512.00,261.27
             519.68,260.16 536.85,256.55 535.83,269.00
             534.71,282.61 529.77,292.64 515.00,293.17
             515.00,293.17 505.00,293.17 505.00,293.17
             505.00,293.17 494.00,295.68 494.00,295.68
             494.00,295.68 485.00,296.28 485.00,296.28
             472.90,297.72 474.52,298.27 464.00,301.22
             464.00,301.22 456.00,302.90 456.00,302.90
             456.00,302.90 424.00,314.80 424.00,314.80
             413.44,315.81 407.97,307.67 402.77,300.00
             400.73,296.98 397.13,293.33 396.31,290.00
             394.75,283.65 398.93,275.85 401.19,270.00
             401.19,270.00 406.52,254.00 406.52,254.00
             406.52,254.00 415.51,238.00 415.51,238.00
             415.51,238.00 419.78,228.00 419.78,228.00
             423.49,220.12 428.96,213.31 433.62,206.00
             433.62,206.00 438.76,197.00 438.76,197.00
             438.76,197.00 444.63,188.00 444.63,188.00
             444.63,188.00 448.60,179.00 448.60,179.00
             448.60,179.00 456.55,163.00 456.55,163.00
             456.55,163.00 460.45,152.00 460.45,152.00
             460.45,152.00 469.21,131.00 469.21,131.00
             469.21,131.00 478.92,103.00 478.92,103.00
             478.92,103.00 492.38,75.00 492.38,75.00
             492.38,75.00 496.46,64.00 496.46,64.00
             496.46,64.00 502.70,51.00 502.70,51.00
             502.70,51.00 509.86,34.00 509.86,34.00
             509.86,34.00 515.20,23.00 515.20,23.00
             519.09,14.22 513.94,11.46 518.49,6.90
             520.69,4.69 526.76,0.96 530.00,1.42
             533.03,1.85 535.91,4.86 537.91,7.00
             543.25,12.72 547.45,20.99 546.90,29.00
             546.52,34.59 544.07,38.17 543.24,42.00
             542.41,45.81 543.36,48.83 540.87,55.00
             540.87,55.00 531.22,71.00 531.22,71.00
             531.22,71.00 515.15,100.00 515.15,100.00
             509.35,110.05 496.58,140.49 492.43,152.00
             492.43,152.00 486.69,171.00 486.69,171.00
             486.69,171.00 478.74,190.00 478.74,190.00
             478.74,190.00 458.86,229.00 458.86,229.00
             458.86,229.00 453.13,244.00 453.13,244.00
             453.13,244.00 440.00,276.00 440.00,276.00 Z
           M 645.00,102.65
           C 655.04,103.36 650.82,112.40 650.53,119.00
             650.33,123.56 652.31,125.28 651.26,129.00
             649.34,135.78 638.18,144.53 631.00,143.80
             627.43,143.44 625.39,142.26 622.73,139.95
             614.97,133.18 615.72,123.26 620.99,115.02
             625.51,107.96 636.99,103.83 645.00,102.65 Z
           M 694.00,281.00
           C 705.45,274.31 721.93,256.17 729.40,245.00
             729.40,245.00 733.54,238.00 733.54,238.00
             737.47,231.83 742.54,226.03 744.90,219.00
             746.59,213.95 745.74,210.08 746.09,205.00
             746.70,196.08 748.26,188.03 754.17,181.00
             757.45,177.11 763.28,169.23 767.00,166.70
             771.48,163.64 777.78,162.30 783.00,161.12
             788.15,159.96 795.12,159.29 799.57,162.92
             802.71,165.48 802.01,169.72 800.60,173.00
             800.60,173.00 789.04,195.00 789.04,195.00
             787.40,198.65 783.79,203.83 789.04,205.91
             792.83,207.73 799.96,206.39 804.00,205.91
             804.00,205.91 823.00,201.56 823.00,201.56
             823.00,201.56 841.00,195.58 841.00,195.58
             844.08,194.67 855.21,189.80 857.44,191.13
             859.39,192.29 859.71,195.98 860.00,198.00
             860.00,198.00 826.00,211.10 826.00,211.10
             826.00,211.10 818.00,212.95 818.00,212.95
             818.00,212.95 804.00,218.32 804.00,218.32
             804.00,218.32 796.00,222.31 796.00,222.31
             790.00,224.33 780.55,223.05 776.18,226.01
             776.18,226.01 758.91,248.00 758.91,248.00
             758.91,248.00 744.32,263.00 744.32,263.00
             735.85,273.13 728.74,284.40 718.00,292.53
             711.93,297.13 704.47,298.67 698.00,302.51
             693.54,305.15 686.39,308.34 681.04,307.81
             678.28,307.54 676.99,306.19 674.84,304.69
             665.71,298.34 663.78,293.77 662.92,283.00
             662.92,283.00 660.00,262.00 660.00,262.00
             660.00,262.00 642.00,278.10 642.00,278.10
             642.00,278.10 624.00,289.67 624.00,289.67
             617.61,293.91 609.47,300.72 603.00,303.40
             598.23,305.37 593.23,308.05 588.00,307.95
             579.42,307.78 566.16,299.44 562.16,291.96
             560.14,288.20 557.87,274.46 558.04,270.00
             558.40,260.70 559.96,255.68 562.25,247.00
             563.53,242.14 563.40,239.28 565.46,234.00
             565.46,234.00 578.60,209.00 578.60,209.00
             578.60,209.00 585.82,195.00 585.82,195.00
             585.82,195.00 593.42,178.00 593.42,178.00
             595.10,175.03 597.19,170.74 600.10,168.94
             603.54,166.82 606.44,168.00 610.00,167.31
             613.65,166.60 617.18,164.46 621.00,164.51
             626.44,164.58 631.29,169.51 630.68,175.01
             629.96,181.60 626.18,189.13 623.25,195.00
             623.25,195.00 605.89,228.00 605.89,228.00
             605.89,228.00 599.63,242.00 599.63,242.00
             599.63,242.00 590.45,261.00 590.45,261.00
             589.39,263.67 586.22,271.11 587.92,273.60
             590.48,277.34 603.69,274.30 607.00,272.49
             623.36,263.57 643.37,259.49 656.89,245.83
             663.52,239.14 662.53,227.68 665.36,219.00
             668.12,210.51 682.54,181.78 687.61,175.00
             695.36,164.63 700.02,165.23 711.00,162.74
             714.15,162.03 720.86,161.36 723.35,163.79
             725.78,166.07 724.24,170.36 723.35,173.00
             723.35,173.00 711.69,195.00 711.69,195.00
             711.69,195.00 702.86,214.00 702.86,214.00
             702.86,214.00 697.99,227.00 697.99,227.00
             694.06,236.55 691.05,240.28 691.00,251.00
             690.94,263.37 691.27,268.86 694.00,281.00 Z
           M 55.00,419.00
           C 61.22,428.59 59.87,443.49 54.01,453.00
             54.01,453.00 46.21,462.96 46.21,462.96
             41.33,469.50 37.84,475.84 29.00,476.00
             24.25,476.08 12.14,475.01 8.17,472.84
             2.66,469.83 -0.67,462.10 0.21,456.00
             0.62,453.17 1.60,451.59 2.38,449.00
             3.24,446.15 3.07,444.86 4.65,442.00
             4.65,442.00 12.56,431.00 12.56,431.00
             25.63,412.39 25.24,411.76 42.00,395.00
             53.25,383.75 59.02,376.19 76.00,375.09
             79.19,374.88 82.21,374.97 84.99,376.74
             92.59,381.56 102.17,401.74 101.48,411.00
             101.48,411.00 96.61,436.00 96.61,436.00
             96.61,436.00 94.24,453.00 94.24,453.00
             94.24,453.00 89.52,468.00 89.52,468.00
             89.52,468.00 86.58,487.00 86.58,487.00
             86.58,487.00 79.88,516.00 79.88,516.00
             79.88,516.00 76.52,532.00 76.52,532.00
             76.52,532.00 67.80,557.00 67.80,557.00
             67.80,557.00 61.88,577.00 61.88,577.00
             61.88,577.00 57.00,621.00 57.00,621.00
             63.46,615.12 71.00,601.61 76.10,594.00
             76.10,594.00 86.21,582.00 86.21,582.00
             86.21,582.00 91.75,573.00 91.75,573.00
             91.75,573.00 109.87,547.00 109.87,547.00
             109.87,547.00 155.19,488.00 155.19,488.00
             155.19,488.00 162.32,478.00 162.32,478.00
             175.63,461.66 190.56,446.97 201.81,429.00
             205.22,423.56 221.37,403.29 226.04,399.53
             229.26,396.93 238.76,392.23 243.00,389.93
             246.81,387.86 256.80,380.08 260.57,383.42
             266.24,388.45 260.77,398.71 256.90,403.00
             256.90,403.00 247.46,413.00 247.46,413.00
             247.46,413.00 238.58,425.00 238.58,425.00
             238.58,425.00 227.51,438.00 227.51,438.00
             227.51,438.00 214.42,455.00 214.42,455.00
             202.12,469.44 195.14,478.63 185.45,495.00
             185.45,495.00 173.38,517.00 173.38,517.00
             173.38,517.00 150.66,545.00 150.66,545.00
             150.66,545.00 139.13,561.00 139.13,561.00
             139.13,561.00 109.51,600.00 109.51,600.00
             109.51,600.00 99.90,615.00 99.90,615.00
             95.90,622.33 95.64,624.65 89.99,632.00
             89.99,632.00 77.50,649.00 77.50,649.00
             77.50,649.00 66.02,663.00 66.02,663.00
             66.02,663.00 58.79,673.00 58.79,673.00
             55.10,677.30 48.35,684.03 42.09,682.57
             37.44,681.49 26.28,670.11 25.35,665.91
             25.35,665.91 27.72,647.00 27.72,647.00
             27.72,647.00 30.00,610.00 30.00,610.00
             30.00,610.00 30.91,600.00 30.91,600.00
             30.91,600.00 33.46,564.00 33.46,564.00
             33.46,564.00 40.56,538.00 40.56,538.00
             40.56,538.00 45.88,517.00 45.88,517.00
             45.88,517.00 49.11,506.00 49.11,506.00
             49.11,506.00 55.43,473.00 55.43,473.00
             55.43,473.00 66.68,440.00 66.68,440.00
             69.83,431.48 72.77,425.45 72.99,416.00
             73.05,413.02 73.13,408.76 71.69,406.11
             69.28,401.68 59.50,397.82 55.01,400.61
             52.57,402.13 49.02,406.66 47.08,409.00
             39.89,417.72 34.93,426.24 29.42,436.00
             27.94,438.63 22.40,448.34 22.83,450.90
             23.08,452.33 23.99,453.20 25.11,454.02
             30.82,458.14 35.10,453.27 38.68,449.00
             42.40,444.55 50.95,431.30 53.01,426.00
             53.01,426.00 55.00,419.00 55.00,419.00 Z
           M 470.00,482.00
           C 470.00,482.00 448.00,484.00 448.00,484.00
             441.05,484.03 422.82,483.62 416.91,480.93
             415.24,480.17 413.51,478.80 412.00,477.74
             408.56,475.31 398.71,469.18 399.82,464.22
             400.82,459.79 409.56,460.13 413.00,459.72
             413.00,459.72 437.00,457.09 437.00,457.09
             437.00,457.09 444.00,457.82 444.00,457.82
             444.00,457.82 454.00,457.00 454.00,457.00
             462.66,456.90 464.48,457.04 473.00,458.13
             476.26,458.54 480.72,459.08 483.58,457.02
             486.24,455.10 491.21,440.80 492.76,437.00
             492.76,437.00 500.62,421.00 500.62,421.00
             502.93,417.00 505.73,413.27 507.54,409.00
             512.79,396.55 509.72,396.34 519.11,384.00
             521.13,381.35 522.18,379.47 525.18,377.81
             526.98,376.81 529.73,375.57 531.78,376.40
             533.99,377.29 538.98,386.60 539.57,389.00
             540.09,391.12 539.83,392.89 539.57,395.00
             539.02,399.57 539.32,404.54 540.63,409.00
             541.99,413.61 544.30,415.53 543.80,421.00
             542.74,432.56 534.01,445.86 531.00,457.00
             531.00,457.00 545.00,458.00 545.00,458.00
             545.00,458.00 589.00,453.17 589.00,453.17
             595.07,452.60 597.39,453.82 601.00,453.82
             601.00,453.82 610.00,453.01 610.00,453.01
             610.00,453.01 628.00,451.80 628.00,451.80
             630.96,451.68 634.17,451.58 636.11,454.30
             638.77,458.02 636.50,463.51 632.89,465.61
             625.37,470.01 620.29,469.90 612.00,470.00
             599.39,470.16 601.82,474.93 589.00,475.00
             589.00,475.00 555.00,477.09 555.00,477.09
             555.00,477.09 545.00,478.00 545.00,478.00
             545.00,478.00 527.00,479.00 527.00,479.00
             524.06,479.03 519.62,478.65 517.04,480.02
             513.47,481.92 512.31,485.73 510.41,489.00
             510.41,489.00 499.40,509.00 499.40,509.00
             499.40,509.00 486.97,528.00 486.97,528.00
             486.97,528.00 480.03,538.00 480.03,538.00
             477.39,542.78 475.68,547.96 473.69,553.00
             473.69,553.00 469.06,563.00 469.06,563.00
             469.06,563.00 459.58,591.00 459.58,591.00
             459.58,591.00 450.54,609.00 450.54,609.00
             448.31,614.61 441.08,632.67 441.57,638.00
             441.76,640.09 443.16,643.01 443.99,645.00
             445.94,649.69 448.68,655.51 455.00,654.09
             455.00,654.09 463.00,650.14 463.00,650.14
             466.59,648.78 469.04,649.31 472.00,647.83
             472.00,647.83 479.00,642.69 479.00,642.69
             479.00,642.69 487.00,638.53 487.00,638.53
             487.00,638.53 499.00,629.54 499.00,629.54
             504.45,625.97 515.68,619.48 519.59,614.83
             524.13,609.42 525.38,597.77 531.46,588.00
             537.65,578.07 557.21,558.34 567.00,551.96
             570.93,549.41 581.43,544.56 586.00,543.21
             589.33,542.22 599.11,541.31 603.00,541.00
             603.44,539.64 603.44,538.72 604.59,537.60
             607.84,534.44 615.75,536.10 619.00,538.43
             619.00,538.43 635.04,553.21 635.04,553.21
             638.34,557.57 639.97,562.63 645.17,565.91
             649.75,568.81 653.30,567.73 658.00,568.21
             658.00,568.21 665.00,569.64 665.00,569.64
             668.92,570.08 671.23,568.63 675.00,568.15
             675.00,568.15 685.00,568.15 685.00,568.15
             691.16,567.88 694.32,565.94 700.00,564.48
             702.89,563.73 706.13,563.49 708.47,561.44
             710.31,559.83 712.68,555.31 714.28,553.00
             714.28,553.00 727.12,535.00 727.12,535.00
             728.49,533.22 731.77,528.95 733.32,527.64
             737.08,524.44 748.05,520.50 752.85,522.60
             756.28,524.10 755.58,527.00 755.17,530.00
             754.99,532.94 754.12,544.93 755.17,547.00
             755.99,549.05 759.66,552.83 761.29,555.00
             770.26,566.93 770.85,564.21 778.25,579.00
             779.66,581.83 782.62,586.95 782.57,590.00
             782.51,593.84 778.52,598.70 776.59,602.00
             776.59,602.00 770.97,612.00 770.97,612.00
             768.37,615.83 762.34,623.09 761.03,627.00
             759.11,632.71 763.01,641.88 767.18,645.85
             772.36,650.78 775.96,646.89 781.00,644.02
             781.00,644.02 791.96,638.69 791.96,638.69
             795.54,635.80 798.55,629.88 801.67,626.01
             805.43,621.35 818.74,610.84 824.00,607.29
             829.51,603.58 835.36,600.51 839.37,595.00
             839.37,595.00 854.25,568.00 854.25,568.00
             856.87,561.87 861.80,548.80 866.39,544.30
             870.34,540.42 873.93,542.10 878.00,541.31
             881.65,540.60 885.18,538.46 889.00,538.51
             894.44,538.58 899.29,543.51 898.68,549.01
             897.60,558.85 889.08,573.17 884.31,582.00
             884.31,582.00 863.27,624.00 863.27,624.00
             861.05,628.44 857.37,637.28 856.02,642.00
             855.22,644.80 854.43,647.98 858.10,648.98
             859.84,649.46 869.14,648.92 871.00,648.35
             871.00,648.35 891.00,639.25 891.00,639.25
             909.56,630.45 909.93,631.76 927.00,618.29
             930.18,615.77 934.97,613.15 937.16,609.91
             938.71,607.61 940.58,601.11 941.86,598.00
             941.86,598.00 954.76,567.00 954.76,567.00
             954.76,567.00 964.89,549.00 964.89,549.00
             967.15,544.62 971.45,536.53 975.32,533.60
             977.58,531.89 979.47,532.21 982.00,531.51
             985.36,530.59 987.36,528.66 991.00,529.97
             996.71,532.03 1004.37,539.28 1003.03,546.00
             1002.29,549.64 999.63,551.96 997.82,555.00
             997.82,555.00 993.68,564.00 993.68,564.00
             993.68,564.00 987.01,575.00 987.01,575.00
             987.01,575.00 975.75,599.00 975.75,599.00
             975.75,599.00 963.00,623.00 963.00,623.00
             963.00,623.00 976.00,608.09 976.00,608.09
             976.00,608.09 993.79,592.91 993.79,592.91
             993.79,592.91 1007.29,575.04 1007.29,575.04
             1012.26,569.62 1028.56,556.97 1035.00,552.84
             1038.28,550.73 1042.27,549.49 1046.00,548.43
             1055.06,545.84 1063.78,544.62 1067.35,556.00
             1068.00,558.06 1068.05,560.84 1067.96,563.00
             1067.68,570.10 1060.82,590.24 1058.34,598.00
             1055.63,606.51 1053.01,623.02 1053.00,632.00
             1069.40,631.25 1067.54,628.67 1080.00,621.79
             1084.66,619.22 1089.96,617.67 1092.93,612.96
             1097.48,605.73 1096.99,596.69 1105.49,585.00
             1117.57,568.39 1137.95,549.13 1158.00,543.21
             1161.33,542.22 1171.11,541.31 1175.00,541.00
             1177.41,533.44 1186.98,535.23 1192.00,539.21
             1192.00,539.21 1207.04,553.21 1207.04,553.21
             1210.34,557.57 1211.97,562.63 1217.17,565.91
             1222.08,569.03 1226.09,567.60 1231.00,568.33
             1231.00,568.33 1237.00,569.64 1237.00,569.64
             1240.92,570.08 1243.23,568.63 1247.00,568.15
             1247.00,568.15 1257.00,568.15 1257.00,568.15
             1257.00,568.15 1278.00,563.27 1278.00,563.27
             1278.00,563.27 1294.00,559.44 1294.00,559.44
             1297.91,559.49 1300.14,562.16 1299.06,566.00
             1296.78,574.10 1292.29,572.90 1286.00,575.34
             1281.71,577.00 1279.61,579.48 1274.00,581.23
             1274.00,581.23 1254.00,584.82 1254.00,584.82
             1247.88,586.26 1246.31,588.91 1241.00,588.94
             1235.03,588.82 1222.40,585.43 1217.43,588.94
             1214.24,591.31 1215.71,595.35 1213.46,602.00
             1209.87,612.57 1206.51,623.37 1200.63,633.00
             1197.32,638.43 1185.06,654.54 1180.83,658.91
             1180.83,658.91 1169.05,669.25 1169.05,669.25
             1162.12,675.59 1151.90,682.53 1142.00,681.67
             1135.02,681.07 1131.97,678.82 1126.00,676.35
             1126.00,676.35 1118.00,673.53 1118.00,673.53
             1112.59,671.06 1101.02,662.95 1098.01,658.00
             1095.51,653.89 1093.11,640.04 1093.00,635.00
             1093.00,635.00 1073.00,647.34 1073.00,647.34
             1065.27,652.60 1056.94,658.93 1048.00,662.04
             1041.12,664.43 1032.11,664.46 1027.60,657.91
             1025.32,654.60 1024.92,646.07 1025.01,642.00
             1025.01,642.00 1033.00,587.00 1033.00,587.00
             1025.70,591.26 1022.61,595.99 1016.00,601.11
             1016.00,601.11 1000.00,613.17 1000.00,613.17
             1000.00,613.17 983.00,629.83 983.00,629.83
             983.00,629.83 968.17,643.04 968.17,643.04
             968.17,643.04 958.72,654.00 958.72,654.00
             958.72,654.00 950.46,663.00 950.46,663.00
             950.46,663.00 943.68,671.91 943.68,671.91
             937.84,678.33 928.50,683.28 920.00,679.23
             917.69,678.14 915.20,676.29 914.04,673.96
             910.27,666.44 920.23,651.46 921.00,643.00
             921.00,643.00 908.00,653.56 908.00,653.56
             908.00,653.56 887.00,667.00 887.00,667.00
             877.54,673.35 872.78,678.13 861.00,681.37
             850.78,684.18 834.88,674.77 830.16,665.96
             828.14,662.20 825.87,648.46 826.04,644.00
             826.04,644.00 827.00,633.00 827.00,633.00
             819.10,641.60 816.23,640.47 809.04,647.17
             809.04,647.17 796.83,660.71 796.83,660.71
             789.85,667.48 774.40,677.53 765.00,680.22
             761.79,681.14 757.25,681.73 754.00,680.83
             750.10,679.75 746.99,676.71 744.00,674.13
             734.97,666.34 734.74,664.91 731.26,654.00
             729.57,648.72 728.81,647.88 729.04,642.00
             729.84,621.34 746.13,605.12 748.73,590.09
             749.49,585.66 747.26,584.78 745.64,581.00
             744.20,577.64 743.30,571.68 743.00,568.00
             729.00,579.19 722.19,586.10 712.03,601.00
             712.03,601.00 701.90,618.00 701.90,618.00
             701.90,618.00 680.00,649.00 680.00,649.00
             680.00,649.00 667.45,668.00 667.45,668.00
             663.77,674.19 663.98,678.35 656.00,679.00
             656.00,679.00 651.94,669.00 651.94,669.00
             650.46,663.94 651.11,648.83 652.75,644.00
             654.00,640.32 664.06,627.65 667.00,624.00
             675.57,613.35 691.24,593.81 697.00,582.00
             697.00,582.00 680.00,585.33 680.00,585.33
             675.64,586.69 673.95,588.91 669.00,588.94
             663.03,588.82 650.40,585.43 645.43,588.94
             642.36,591.22 643.54,595.25 641.78,601.00
             638.54,611.57 634.79,622.37 629.24,632.00
             626.06,637.52 613.13,654.47 608.83,658.91
             608.83,658.91 597.05,669.25 597.05,669.25
             590.12,675.59 579.90,682.53 570.00,681.67
             563.02,681.07 559.97,678.82 554.00,676.35
             554.00,676.35 546.00,673.53 546.00,673.53
             540.59,671.06 529.02,662.95 526.01,658.00
             523.96,654.63 521.61,642.32 521.00,638.00
             521.00,638.00 505.00,652.68 505.00,652.68
             505.00,652.68 489.28,664.47 489.28,664.47
             489.28,664.47 482.99,670.48 482.99,670.48
             478.45,674.12 462.49,683.71 457.00,684.37
             450.43,685.16 445.68,677.61 440.96,674.04
             438.95,672.51 437.18,671.53 435.32,669.68
             431.67,666.03 421.48,649.98 419.45,645.00
             417.50,640.19 417.29,637.73 416.11,633.00
             415.47,630.46 414.41,627.58 414.35,625.00
             414.29,622.30 415.32,617.68 416.00,615.00
             407.26,623.66 391.24,636.08 381.00,643.28
             381.00,643.28 366.00,653.52 366.00,653.52
             357.97,659.83 341.40,676.30 333.00,679.90
             333.00,679.90 314.00,686.17 314.00,686.17
             314.00,686.17 307.00,686.17 307.00,686.17
             303.09,686.44 300.27,687.43 296.00,686.79
             287.55,685.52 278.31,678.28 274.10,671.00
             272.05,667.44 267.73,648.75 267.00,644.00
             267.00,644.00 255.00,653.56 255.00,653.56
             255.00,653.56 232.00,668.35 232.00,668.35
             232.00,668.35 224.00,674.37 224.00,674.37
             220.66,676.62 208.91,681.56 205.00,681.89
             195.69,682.69 181.45,673.98 177.16,665.96
             175.14,662.20 172.87,648.46 173.04,644.00
             173.40,634.70 174.96,629.68 177.25,621.00
             178.53,616.14 178.40,613.28 180.46,608.00
             180.46,608.00 193.60,583.00 193.60,583.00
             193.60,583.00 200.82,569.00 200.82,569.00
             200.82,569.00 207.86,553.00 207.86,553.00
             209.58,549.89 212.11,544.78 215.10,542.94
             218.54,540.82 221.44,542.00 225.00,541.31
             228.65,540.60 232.18,538.46 236.00,538.51
             241.44,538.58 246.29,543.51 245.68,549.01
             244.60,558.85 236.08,573.17 231.31,582.00
             231.31,582.00 210.27,624.00 210.27,624.00
             207.98,628.59 204.88,636.11 203.13,641.00
             202.74,642.91 201.66,645.75 203.13,647.60
             204.58,650.03 214.29,649.23 217.00,648.61
             217.00,648.61 229.00,643.15 229.00,643.15
             238.31,639.54 261.57,629.68 267.79,622.91
             272.07,618.24 272.46,613.48 274.88,608.00
             277.18,602.79 278.68,602.11 281.18,598.00
             281.18,598.00 283.84,593.00 283.84,593.00
             283.84,593.00 311.83,560.00 311.83,560.00
             317.28,553.86 319.93,548.97 327.00,543.53
             332.96,538.94 358.04,528.54 366.00,525.95
             370.18,524.59 378.31,524.16 381.69,527.43
             389.64,535.14 375.98,553.61 369.96,558.77
             362.61,565.08 351.19,561.09 346.17,564.60
             346.17,564.60 333.00,578.00 333.00,578.00
             333.00,578.00 322.62,589.00 322.62,589.00
             313.24,600.44 308.53,610.22 303.66,624.00
             302.55,627.14 299.42,633.22 299.42,636.00
             299.42,643.23 309.41,653.95 316.00,656.15
             322.79,658.41 328.47,654.16 334.00,650.80
             334.00,650.80 372.00,626.37 372.00,626.37
             372.00,626.37 382.00,619.09 382.00,619.09
             382.00,619.09 390.00,614.54 390.00,614.54
             390.00,614.54 405.00,604.06 405.00,604.06
             409.40,601.33 419.65,596.34 422.49,592.82
             424.57,590.23 426.18,583.49 427.33,580.00
             427.33,580.00 432.41,567.00 432.41,567.00
             432.41,567.00 435.87,557.00 435.87,557.00
             435.87,557.00 449.74,529.00 449.74,529.00
             449.74,529.00 464.05,496.00 464.05,496.00
             464.05,496.00 470.00,482.00 470.00,482.00 Z
           M 260.00,476.65
           C 270.04,477.36 265.82,486.40 265.53,493.00
             265.33,497.56 267.31,499.28 266.26,503.00
             264.34,509.78 253.18,518.53 246.00,517.80
             242.43,517.44 240.39,516.26 237.73,513.95
             229.97,507.18 230.72,497.26 235.99,489.02
             240.51,481.96 251.99,477.83 260.00,476.65 Z
           M 913.00,476.65
           C 923.04,477.36 918.82,486.40 918.53,493.00
             918.33,497.56 920.31,499.28 919.26,503.00
             917.34,509.78 906.18,518.53 899.00,517.80
             895.43,517.44 893.39,516.26 890.73,513.95
             882.97,507.18 883.72,497.26 888.99,489.02
             893.51,481.96 904.99,477.83 913.00,476.65 Z
           M 570.00,575.00
           C 570.70,578.93 571.84,583.25 569.26,586.79
             566.83,590.13 563.19,590.21 560.27,595.04
             557.34,599.90 553.07,619.38 553.38,625.00
             553.55,628.17 558.12,638.38 560.39,640.58
             563.16,643.27 575.11,647.05 579.00,646.66
             585.05,646.05 590.34,641.82 594.82,638.00
             598.50,634.85 604.21,626.29 606.95,622.00
             611.37,615.06 618.60,603.19 618.96,595.00
             619.24,588.68 617.96,586.72 616.00,581.00
             612.59,571.01 607.65,562.81 596.00,562.09
             585.95,561.48 577.59,569.43 570.00,575.00 Z
           M 1163.00,562.34
           C 1148.99,566.07 1138.48,577.83 1133.47,591.00
             1133.47,591.00 1131.33,599.00 1131.33,599.00
             1131.33,599.00 1128.83,605.00 1128.83,605.00
             1128.83,605.00 1125.61,622.00 1125.61,622.00
             1124.97,627.01 1128.75,637.06 1132.39,640.58
             1135.54,643.64 1147.63,647.25 1152.00,646.52
             1157.47,645.61 1161.72,642.13 1165.91,638.73
             1170.20,635.24 1171.71,632.42 1174.86,628.00
             1181.48,618.71 1191.55,603.70 1190.96,592.00
             1190.75,587.86 1189.66,585.80 1188.34,582.00
             1183.85,569.01 1178.16,560.63 1163.00,562.34 Z" />
</svg>
